<svg xmlns="http://www.w3.org/2000/svg" viewBox="0 0 24 24">
    <path fill="none" stroke="currentColor" stroke-linejoin="round"
          d="M17.759 18.685a2.67 2.67 0 0 1-.42 3.22l-.5.5-6.1-6.1.5-.5a2.67 2.67 0 0 1 3.22-.42l3.29-3.29-.14-.14c-.42-.42-.42-1.09 0-1.51l.7-.7 5.08 5.08-.7.7c-.42.42-1.09.42-1.51 0l-.14-.14-3.29 3.29.01.01z"/>
    <path fill="none" stroke="currentColor" stroke-linecap="round" stroke-miterlimit="10"
          d="m13.789 19.355-3.4 3.4M9.169 20.805h-3.58a3.44 3.44 0 0 1-3.44-3.44V4.685c.01-1.9 1.55-3.44 3.45-3.44h12.69c1.9 0 3.44 1.54 3.44 3.44v5.66M6.109 5.375h11.31M6.109 8.625h9.01M6.109 11.875h4.97"/>
</svg>
